<svg width="200" height="200" viewBox="0 0 200 200" fill="none" xmlns="http://www.w3.org/2000/svg">
<path d="M150 66.6664V83.3328H158.334C172.141 83.3328 183.334 94.5258 183.334 108.333V116.666C183.334 130.473 172.141 141.666 158.334 141.666L150 141.666V150C150 168.409 135.076 183.333 116.667 183.333H75C56.5906 183.333 41.6667 168.409 41.6667 150V66.6664H150ZM158.334 99.9996H150V125H158.334C162.936 125 166.667 121.269 166.667 116.666V108.333C166.667 103.73 162.936 99.9996 158.334 99.9996ZM65.4781 15.9883C74.1042 20.9688 77.0597 31.9988 72.0796 40.625C70.5507 43.2723 71.4582 46.6574 74.1054 48.1859L67.8554 59.0109C59.2292 54.0312 56.2734 43.0008 61.2539 34.375C62.7828 31.7277 61.8753 28.3426 59.2281 26.8141L65.4781 15.9883ZM90.4781 15.9883C99.1042 20.9688 102.06 31.9988 97.0796 40.625C95.5511 43.2723 96.4582 46.6574 99.1054 48.1859L92.8554 59.0109C84.2292 54.0312 81.2734 43.0008 86.2539 34.375C87.7824 31.7277 86.8753 28.3426 84.2281 26.8141L90.4781 15.9883ZM115.478 15.9883C124.104 20.9688 127.06 31.9988 122.08 40.625C120.551 43.2723 121.458 46.6574 124.105 48.1859L117.855 59.0109C109.229 54.0312 106.273 43.0008 111.254 34.375C112.782 31.7277 111.875 28.3426 109.228 26.8141L115.478 15.9883Z" fill="white"/>
</svg>
