<svg width="60" height="60" viewBox="0 0 60 60" fill="none" xmlns="http://www.w3.org/2000/svg">
<path d="M45 19.9999V24.9999H47.5C51.6422 24.9999 55 28.3578 55 32.4999V34.9999C55 39.1421 51.6422 42.4999 47.5 42.4999L45 42.4998V44.9999C45 50.5228 40.5228 55 35 55H22.5C16.9771 55 12.5 50.5228 12.5 44.9999V19.9999H45ZM47.5 29.9999H45V37.4999H47.5C48.8807 37.4999 50 36.3806 50 34.9999V32.5C50 31.1192 48.8807 29.9999 47.5 29.9999ZM19.6434 4.79651C22.2312 6.29065 23.1179 9.59967 21.6239 12.1875C21.1652 12.9817 21.4374 13.9973 22.2316 14.4558L20.3566 17.7033C17.7688 16.2094 16.882 12.9003 18.3761 10.3125C18.8348 9.51834 18.5626 8.5028 17.7684 8.04424L19.6434 4.79651ZM27.1434 4.79651C29.7313 6.29065 30.6179 9.59967 29.1239 12.1875C28.6653 12.9817 28.9374 13.9973 29.7316 14.4558L27.8566 17.7033C25.2688 16.2094 24.382 12.9003 25.8761 10.3125C26.3347 9.51834 26.0626 8.5028 25.2684 8.04424L27.1434 4.79651ZM34.6434 4.79651C37.2313 6.29065 38.1179 9.59967 36.6239 12.1875C36.1653 12.9817 36.4374 13.9973 37.2316 14.4558L35.3566 17.7033C32.7688 16.2094 31.882 12.9003 33.3761 10.3125C33.8347 9.51834 33.5626 8.5028 32.7684 8.04424L34.6434 4.79651Z" fill="#D8C7C7"/>
</svg>
