<svg width="107" height="48" viewBox="0 0 107 48" fill="none" xmlns="http://www.w3.org/2000/svg">
<path d="M1.056 23.736C1.056 21.5173 1.536 19.544 2.496 17.816C3.456 16.0667 4.78933 14.712 6.496 13.752C8.224 12.7707 10.176 12.28 12.352 12.28C15.0187 12.28 17.3013 12.984 19.2 14.392C21.0987 15.8 22.368 17.72 23.008 20.152H16.992C16.544 19.2133 15.904 18.4987 15.072 18.008C14.2613 17.5173 13.3333 17.272 12.288 17.272C10.6027 17.272 9.23733 17.8587 8.192 19.032C7.14667 20.2053 6.624 21.7733 6.624 23.736C6.624 25.6987 7.14667 27.2667 8.192 28.44C9.23733 29.6133 10.6027 30.2 12.288 30.2C13.3333 30.2 14.2613 29.9547 15.072 29.464C15.904 28.9733 16.544 28.2587 16.992 27.32H23.008C22.368 29.752 21.0987 31.672 19.2 33.08C17.3013 34.4667 15.0187 35.16 12.352 35.16C10.176 35.16 8.224 34.68 6.496 33.72C4.78933 32.7387 3.456 31.384 2.496 29.656C1.536 27.928 1.056 25.9547 1.056 23.736Z" fill="#D8C7C7"/>
<path d="M41.0001 18.8333V21.4166H42.3334C44.5426 21.4166 46.3334 23.1515 46.3334 25.2916V26.5833C46.3334 28.7233 44.5426 30.4583 42.3334 30.4583L41.0001 30.4582V31.7499C41.0001 34.6034 38.6122 36.9166 35.6667 36.9166H29.0001C26.0546 36.9166 23.6667 34.6034 23.6667 31.7499V18.8333H41.0001ZM42.3334 23.9999H41.0001V27.8749H42.3334C43.0698 27.8749 43.6667 27.2966 43.6667 26.5833V25.2916C43.6667 24.5782 43.0698 23.9999 42.3334 23.9999ZM27.4766 10.9781C28.8567 11.7501 29.3296 13.4598 28.5328 14.7968C28.2882 15.2072 28.4334 15.7319 28.8569 15.9688L27.8569 17.6467C26.4767 16.8748 26.0038 15.1651 26.8007 13.8281C27.0453 13.4178 26.9001 12.8931 26.4766 12.6561L27.4766 10.9781ZM31.4766 10.9781C32.8567 11.7501 33.3296 13.4598 32.5328 14.7968C32.2882 15.2072 32.4334 15.7319 32.8569 15.9688L31.8569 17.6467C30.4767 16.8748 30.0038 15.1651 30.8007 13.8281C31.0452 13.4178 30.9001 12.8931 30.4766 12.6561L31.4766 10.9781ZM35.4766 10.9781C36.8567 11.7501 37.3296 13.4598 36.5328 14.7968C36.2882 15.2072 36.4334 15.7319 36.8569 15.9688L35.8569 17.6467C34.4767 16.8748 34.0038 15.1651 34.8007 13.8281C35.0452 13.4178 34.9001 12.8931 34.4766 12.6561L35.4766 10.9781Z" fill="#D8C7C7"/>
<path d="M54.944 21.688H52V35H46.528V21.688H44.544V17.144H46.528V16.632C46.528 14.4347 47.1573 12.7707 48.416 11.64C49.6747 10.488 51.52 9.912 53.952 9.912C54.3573 9.912 54.656 9.92267 54.848 9.944V14.584C53.8027 14.52 53.0667 14.6693 52.64 15.032C52.2133 15.3947 52 16.0453 52 16.984V17.144H54.944V21.688ZM66.4753 21.688H63.5312V35H58.0593V21.688H56.0753V17.144H58.0593V16.632C58.0593 14.4347 58.6886 12.7707 59.9473 11.64C61.2059 10.488 63.0513 9.912 65.4833 9.912C65.8886 9.912 66.1873 9.92267 66.3793 9.944V14.584C65.3339 14.52 64.5979 14.6693 64.1713 15.032C63.7446 15.3947 63.5312 16.0453 63.5312 16.984V17.144H66.4753V21.688ZM85.8785 25.784C85.8785 26.296 85.8465 26.8293 85.7825 27.384H73.3985C73.4838 28.4933 73.8358 29.3467 74.4545 29.944C75.0945 30.52 75.8732 30.808 76.7905 30.808C78.1558 30.808 79.1052 30.232 79.6385 29.08H85.4625C85.1638 30.2533 84.6198 31.3093 83.8305 32.248C83.0625 33.1867 82.0918 33.9227 80.9185 34.456C79.7452 34.9893 78.4332 35.256 76.9825 35.256C75.2332 35.256 73.6758 34.8827 72.3105 34.136C70.9452 33.3893 69.8785 32.3227 69.1105 30.936C68.3425 29.5493 67.9585 27.928 67.9585 26.072C67.9585 24.216 68.3318 22.5947 69.0785 21.208C69.8465 19.8213 70.9132 18.7547 72.2785 18.008C73.6438 17.2613 75.2118 16.888 76.9825 16.888C78.7105 16.888 80.2465 17.2507 81.5905 17.976C82.9345 18.7013 83.9798 19.736 84.7265 21.08C85.4945 22.424 85.8785 23.992 85.8785 25.784ZM80.2785 24.344C80.2785 23.4053 79.9585 22.6587 79.3185 22.104C78.6785 21.5493 77.8785 21.272 76.9185 21.272C76.0012 21.272 75.2225 21.5387 74.5825 22.072C73.9638 22.6053 73.5798 23.3627 73.4305 24.344H80.2785ZM105.597 25.784C105.597 26.296 105.565 26.8293 105.501 27.384H93.1173C93.2026 28.4933 93.5546 29.3467 94.1733 29.944C94.8133 30.52 95.5919 30.808 96.5093 30.808C97.8746 30.808 98.8239 30.232 99.3573 29.08H105.181C104.883 30.2533 104.339 31.3093 103.549 32.248C102.781 33.1867 101.811 33.9227 100.637 34.456C99.4639 34.9893 98.1519 35.256 96.7013 35.256C94.9519 35.256 93.3946 34.8827 92.0293 34.136C90.6639 33.3893 89.5973 32.3227 88.8293 30.936C88.0613 29.5493 87.6773 27.928 87.6773 26.072C87.6773 24.216 88.0506 22.5947 88.7973 21.208C89.5653 19.8213 90.6319 18.7547 91.9973 18.008C93.3626 17.2613 94.9306 16.888 96.7013 16.888C98.4293 16.888 99.9653 17.2507 101.309 17.976C102.653 18.7013 103.699 19.736 104.445 21.08C105.213 22.424 105.597 23.992 105.597 25.784ZM99.9973 24.344C99.9973 23.4053 99.6773 22.6587 99.0373 22.104C98.3973 21.5493 97.5973 21.272 96.6373 21.272C95.7199 21.272 94.9413 21.5387 94.3013 22.072C93.6826 22.6053 93.2986 23.3627 93.1493 24.344H99.9973Z" fill="#D8C7C7"/>
</svg>
