<svg width="108" height="49" viewBox="0 0 108 49" fill="none" xmlns="http://www.w3.org/2000/svg">
<path d="M1.556 24.236C1.556 22.0173 2.036 20.044 2.996 18.316C3.956 16.5667 5.28933 15.212 6.996 14.252C8.724 13.2707 10.676 12.78 12.852 12.78C15.5187 12.78 17.8013 13.484 19.7 14.892C21.5987 16.3 22.868 18.22 23.508 20.652H17.492C17.044 19.7133 16.404 18.9987 15.572 18.508C14.7613 18.0173 13.8333 17.772 12.788 17.772C11.1027 17.772 9.73733 18.3587 8.692 19.532C7.64667 20.7053 7.124 22.2733 7.124 24.236C7.124 26.1987 7.64667 27.7667 8.692 28.94C9.73733 30.1133 11.1027 30.7 12.788 30.7C13.8333 30.7 14.7613 30.4547 15.572 29.964C16.404 29.4733 17.044 28.7587 17.492 27.82H23.508C22.868 30.252 21.5987 32.172 19.7 33.58C17.8013 34.9667 15.5187 35.66 12.852 35.66C10.676 35.66 8.724 35.18 6.996 34.22C5.28933 33.2387 3.956 31.884 2.996 30.156C2.036 28.428 1.556 26.4547 1.556 24.236Z" fill="white"/>
<path d="M41.5001 19.3333V21.9166H42.8334C45.0426 21.9166 46.8334 23.6515 46.8334 25.7916V27.0833C46.8334 29.2234 45.0426 30.9583 42.8334 30.9583L41.5001 30.9582V32.2499C41.5001 35.1034 39.1122 37.4166 36.1667 37.4166H29.5001C26.5546 37.4166 24.1667 35.1034 24.1667 32.2499V19.3333H41.5001ZM42.8334 24.4999H41.5001V28.3749H42.8334C43.5698 28.3749 44.1668 27.7967 44.1668 27.0833V25.7916C44.1668 25.0782 43.5698 24.4999 42.8334 24.4999ZM27.9766 11.4782C29.3567 12.2502 29.8296 13.9598 29.0328 15.2969C28.7882 15.7072 28.9334 16.2319 29.3569 16.4688L28.3569 18.1467C26.9767 17.3748 26.5038 15.6651 27.3007 14.3281C27.5453 13.9178 27.4001 13.3931 26.9766 13.1562L27.9766 11.4782ZM31.9766 11.4782C33.3567 12.2502 33.8296 13.9598 33.0328 15.2969C32.7882 15.7072 32.9334 16.2319 33.3569 16.4688L32.3569 18.1467C30.9767 17.3748 30.5038 15.6651 31.3007 14.3281C31.5452 13.9178 31.4001 13.3931 30.9766 13.1562L31.9766 11.4782ZM35.9766 11.4782C37.3567 12.2502 37.8296 13.9598 37.0328 15.2969C36.7882 15.7072 36.9334 16.2319 37.3569 16.4688L36.3569 18.1467C34.9767 17.3748 34.5038 15.6651 35.3007 14.3281C35.5452 13.9178 35.4001 13.3931 34.9766 13.1562L35.9766 11.4782Z" fill="white"/>
<path d="M55.444 22.188H52.5V35.5H47.028V22.188H45.044V17.644H47.028V17.132C47.028 14.9347 47.6573 13.2707 48.916 12.14C50.1747 10.988 52.02 10.412 54.452 10.412C54.8573 10.412 55.156 10.4227 55.348 10.444V15.084C54.3027 15.02 53.5667 15.1693 53.14 15.532C52.7133 15.8947 52.5 16.5453 52.5 17.484V17.644H55.444V22.188ZM66.9753 22.188H64.0312V35.5H58.5593V22.188H56.5753V17.644H58.5593V17.132C58.5593 14.9347 59.1886 13.2707 60.4473 12.14C61.7059 10.988 63.5513 10.412 65.9833 10.412C66.3886 10.412 66.6873 10.4227 66.8793 10.444V15.084C65.8339 15.02 65.0979 15.1693 64.6713 15.532C64.2446 15.8947 64.0312 16.5453 64.0312 17.484V17.644H66.9753V22.188ZM86.3785 26.284C86.3785 26.796 86.3465 27.3293 86.2825 27.884H73.8985C73.9838 28.9933 74.3358 29.8467 74.9545 30.444C75.5945 31.02 76.3732 31.308 77.2905 31.308C78.6558 31.308 79.6052 30.732 80.1385 29.58H85.9625C85.6638 30.7533 85.1198 31.8093 84.3305 32.748C83.5625 33.6867 82.5918 34.4227 81.4185 34.956C80.2452 35.4893 78.9332 35.756 77.4825 35.756C75.7332 35.756 74.1758 35.3827 72.8105 34.636C71.4452 33.8893 70.3785 32.8227 69.6105 31.436C68.8425 30.0493 68.4585 28.428 68.4585 26.572C68.4585 24.716 68.8318 23.0947 69.5785 21.708C70.3465 20.3213 71.4132 19.2547 72.7785 18.508C74.1438 17.7613 75.7118 17.388 77.4825 17.388C79.2105 17.388 80.7465 17.7507 82.0905 18.476C83.4345 19.2013 84.4798 20.236 85.2265 21.58C85.9945 22.924 86.3785 24.492 86.3785 26.284ZM80.7785 24.844C80.7785 23.9053 80.4585 23.1587 79.8185 22.604C79.1785 22.0493 78.3785 21.772 77.4185 21.772C76.5012 21.772 75.7225 22.0387 75.0825 22.572C74.4638 23.1053 74.0798 23.8627 73.9305 24.844H80.7785ZM106.097 26.284C106.097 26.796 106.065 27.3293 106.001 27.884H93.6173C93.7026 28.9933 94.0546 29.8467 94.6733 30.444C95.3133 31.02 96.0919 31.308 97.0093 31.308C98.3746 31.308 99.3239 30.732 99.8573 29.58H105.681C105.383 30.7533 104.839 31.8093 104.049 32.748C103.281 33.6867 102.311 34.4227 101.137 34.956C99.9639 35.4893 98.6519 35.756 97.2013 35.756C95.4519 35.756 93.8946 35.3827 92.5293 34.636C91.1639 33.8893 90.0973 32.8227 89.3293 31.436C88.5613 30.0493 88.1773 28.428 88.1773 26.572C88.1773 24.716 88.5506 23.0947 89.2973 21.708C90.0653 20.3213 91.1319 19.2547 92.4973 18.508C93.8626 17.7613 95.4306 17.388 97.2013 17.388C98.9293 17.388 100.465 17.7507 101.809 18.476C103.153 19.2013 104.199 20.236 104.945 21.58C105.713 22.924 106.097 24.492 106.097 26.284ZM100.497 24.844C100.497 23.9053 100.177 23.1587 99.5373 22.604C98.8973 22.0493 98.0973 21.772 97.1373 21.772C96.2199 21.772 95.4413 22.0387 94.8013 22.572C94.1826 23.1053 93.7986 23.8627 93.6493 24.844H100.497Z" fill="white"/>
</svg>
